<?xml version="1.0" encoding="utf-8"?>
<!-- Generator: Adobe Illustrator 14.0.0, SVG Export Plug-In . SVG Version: 6.00 Build 43363)  -->
<!DOCTYPE svg PUBLIC "-//W3C//DTD SVG 1.1//EN" "http://www.w3.org/Graphics/SVG/1.1/DTD/svg11.dtd">
<svg version="1.1" id="Layer_1" xmlns="http://www.w3.org/2000/svg" xmlns:xlink="http://www.w3.org/1999/xlink" x="0px" y="0px"
	 width="20.703px" height="72.385px" viewBox="0 0 20.703 72.385" enable-background="new 0 0 20.703 72.385" xml:space="preserve">
<path d="M10.192,44.909c-0.006-0.51-0.01-1.112-0.015-1.76l-5.469,1.779V30.242l5.344-1.739c0-0.062-0.001-0.123-0.001-0.185
	c0-0.665,0.006-1.329,0.008-1.994c-0.022-2.287-0.019-6.553,0.017-8.005l-5.367,1.747V5.089h-2v15.552l-4.704,1.536v10.272
	l4.704-1.536v14.592l-4.704,1.536v10.271l4.704-1.535v16.607h2V55.104l4.926-1.604c0.168-0.061,0.37-0.126,0.568-0.191
	C10.157,52.144,10.164,47.296,10.192,44.909z"/>
<path d="M16.292,43.034c-0.006-0.51-0.01-1.112-0.015-1.76l-5.469,1.779V28.367l5.344-1.739c0-0.062-0.001-0.123-0.001-0.185
	c0-0.665,0.006-1.329,0.008-1.994c-0.022-2.287-0.019-6.553,0.017-8.005l-5.367,1.747V3.214h-2v15.552l-4.704,1.536v10.272
	l4.704-1.536V43.63l-4.704,1.536v10.271l4.704-1.535v16.607h2V53.229l4.926-1.604c0.168-0.061,0.37-0.126,0.568-0.191
	C16.257,50.269,16.264,45.421,16.292,43.034z"/>
<path d="M21.692,41.32c-0.006-0.51-0.01-1.112-0.015-1.76l-5.469,1.779V26.653l5.344-1.739c0-0.062-0.001-0.123-0.001-0.185
	c0-0.665,0.006-1.329,0.008-1.994c-0.022-2.287-0.019-6.553,0.017-8.005l-5.367,1.747V1.5h-2v15.552l-4.704,1.536V28.86l4.704-1.536
	v14.592l-4.704,1.536v10.271l4.704-1.535v16.607h2V51.516l4.926-1.604c0.168-0.061,0.37-0.126,0.568-0.191
	C21.657,48.555,21.664,43.707,21.692,41.32z"/>
</svg>
