<?xml version="1.0" encoding="utf-8"?>
<!-- Generator: Adobe Illustrator 14.0.0, SVG Export Plug-In . SVG Version: 6.00 Build 43363)  -->
<!DOCTYPE svg PUBLIC "-//W3C//DTD SVG 1.1//EN" "http://www.w3.org/Graphics/SVG/1.1/DTD/svg11.dtd">
<svg version="1.1" id="Layer_1" xmlns="http://www.w3.org/2000/svg" xmlns:xlink="http://www.w3.org/1999/xlink" x="0px" y="0px"
	 width="44.781px" height="72.385px" viewBox="0 0 44.781 72.385" enable-background="new 0 0 44.781 72.385" xml:space="preserve">
<g enable-background="new    ">
	<path d="M2.132-0.083v42.439c0,0,15.465-10.188,18.955,1.526c2.663,8.827-7.314,16.806-12.469,19.862
		c-2.661,1.525-8.313,7.64-9.478,8.658V-0.083H2.132z M2.132,45.074v21.048c0.499,0.34,19.621-18.334,9.479-24.104
		C10.779,41.508,8.119,39.979,2.132,45.074z"/>
</g>
<g enable-background="new    ">
	<path d="M2,69.544V-0.052h-2.992v42.439c0,0-15.464-10.188-18.955,1.527c-2.663,8.827,7.315,16.804,12.469,19.861
		c2.027,1.163,5.776,4.973,7.969,7.18C0.536,70.271,1.336,69.808,2,69.544z M-0.992,66.153c-0.499,0.34-19.621-18.334-9.479-24.104
		c0.832-0.511,3.492-2.039,9.479,3.055V66.153z"/>
</g>
</svg>
